# xmcd CD database file
#
# Track frame offsets:
#	150
#	14007
#	42214
#	55131
#	72056
#	98585
#	112925
#	131726
#	158988
#	174580
#	185287
#	207430
#	227585
#	236859
#	273700
#	287813
#	305573
#	319567
#
# Disc length: 4535 seconds
#
# Revision: 0
# Processed by: cddbd v1.4PL0 Copyright (c) Steve Scherf et al.
# Submitted via: CDex 1.50beta10
#
DISCID=0111b512
DTITLE=Hans Koller - Musician Of The Year 1955
DYEAR=1955
DGENRE=Jazz
TTITLE0=Feuerwehr
TTITLE1=Moonlight In Vermont
TTITLE2=Get Happy
TTITLE3=Badewasser: Thema - Spiegel - Krebs
TTITLE4=All About Nora
TTITLE5=Sweet Line
TTITLE6=All The Things You Are
TTITLE7=Yesterdays
TTITLE8=Indian Summer
TTITLE9=Iris For Bill Crozier
TTITLE10=Ack Värmeland Du Sköna
TTITLE11=Small Hotel
TTITLE12="Jazz 1955"
TTITLE13=Together
TTITLE14=Made In Cologne
TTITLE15=Cathy
TTITLE16=These Foolish Things
TTITLE17=Indiana
EXTD=YEAR: 1955
EXTT0=
EXTT1=
EXTT2=
EXTT3=
EXTT4=
EXTT5=
EXTT6=
EXTT7=
EXTT8=
EXTT9=
EXTT10=
EXTT11=
EXTT12=
EXTT13=
EXTT14=
EXTT15=
EXTT16=
EXTT17=
PLAYORDER=
